<svg version="1.2" baseProfile="tiny-ps" xmlns="http://www.w3.org/2000/svg" viewBox="0 0 2603 2543" width="2603" height="2543">
    <title>Signo Modal Aquário</title>
    <style lang="scss">
        .shp0 { mix-blend-mode: multiply;stroke: #000000; stroke-width: 0 }
    </style>
    <g id="Signo Modal Aquário">
        <path id="Ellipse" class="shp0" fill= "#BF3FB2" d="M1261.51 -139.94C2002.36 -139.94 2602.93 460.67 2602.93 1201.55C2602.93 1942.43 2002.36 2543.03 1261.51 2543.03C520.66 2543.03 -79.92 1942.43 -79.92 1201.55C-79.92 460.67 520.66 -139.94 1261.51 -139.94Z" />
        <path id="Ellipse" class="shp0" fill= "#BF3FB2" d="M1045.57 442.93C1622.25 442.93 2089.75 910.45 2089.75 1487.16C2089.75 2063.87 1622.25 2531.38 1045.57 2531.38C468.89 2531.38 1.39 2063.87 1.39 1487.16C1.39 910.45 468.89 442.93 1045.57 442.93Z" />
        <path id="Ellipse" class="shp0" fill= "#BF3FB2" d="M1839.21 1.73C2500.25 1.73 3036.14 537.63 3036.14 1198.71C3036.14 1859.78 2500.25 2395.69 1839.21 2395.69C1178.17 2395.69 642.29 1859.78 642.29 1198.71C642.29 537.63 1178.17 1.73 1839.21 1.73Z" />
        <path id="Ellipse" class="shp0" fill= "#BF3FB2" d="M1487.1 366.68C2069.91 366.68 2542.37 839.16 2542.37 1421.99C2542.37 2004.83 2069.91 2477.31 1487.1 2477.31C904.29 2477.31 431.83 2004.83 431.83 1421.99C431.83 839.16 904.29 366.68 1487.1 366.68Z" />
    </g>
</svg>